<svg xmlns="http://www.w3.org/2000/svg" width="19.95" height="19.9" viewBox="0 0 19.95 19.9">
  <path id="ic_slow_motion_video_24px" d="M13.05,9.79,10,7.5v9l3.05-2.29L16,12Zm0,0L10,7.5v9l3.05-2.29L16,12Zm0,0L10,7.5v9l3.05-2.29L16,12ZM11,4.07V2.05A9.949,9.949,0,0,0,5.68,4.26L7.1,5.69A7.941,7.941,0,0,1,11,4.07ZM5.69,7.1,4.26,5.68A9.949,9.949,0,0,0,2.05,11H4.07A7.941,7.941,0,0,1,5.69,7.1ZM4.07,13H2.05a9.949,9.949,0,0,0,2.21,5.32l1.43-1.43A7.868,7.868,0,0,1,4.07,13Zm1.61,6.74A9.981,9.981,0,0,0,11,21.95V19.93a7.941,7.941,0,0,1-3.9-1.62L5.68,19.74ZM22,12a10.015,10.015,0,0,1-8.95,9.95V19.93a8,8,0,0,0,0-15.86V2.05A10.015,10.015,0,0,1,22,12Z" transform="translate(-2.05 -2.05)"/>
</svg>
